<svg width="9" height="32" viewBox="0 0 9 32" fill="none" xmlns="http://www.w3.org/2000/svg">
<g id="Airbnb Logo" clip-path="url(#clip0_5519_304)">
<path id="Vector" d="M-64.4739 22.679C-64.6355 22.289 -64.7869 21.879 -64.9485 21.529L-65.6958 19.859L-65.7261 19.829C-67.9476 15.029 -70.3207 10.149 -72.8351 5.34897L-72.9361 5.14897C-73.1885 4.67897 -73.441 4.15897 -73.7035 3.67897C-74.0266 3.10897 -74.3397 2.49897 -74.8547 1.91897C-75.3567 1.3121 -75.9885 0.823156 -76.7044 0.487423C-77.4204 0.151689 -78.2027 -0.0224609 -78.9949 -0.0224609C-79.7871 -0.0224609 -80.5694 0.151689 -81.2853 0.487423C-82.0013 0.823156 -82.6331 1.3121 -83.1351 1.91897C-83.6097 2.49897 -83.9631 3.10897 -84.2863 3.67897C-84.5387 4.19897 -84.7912 4.70897 -85.0537 5.17897L-85.1547 5.37897C-87.6287 10.179 -90.0421 15.059 -92.2637 19.859L-92.3243 19.919C-92.5465 20.439 -92.809 20.979 -93.0615 21.559C-93.223 21.909 -93.3846 22.289 -93.5462 22.709C-93.9824 23.8088 -94.1217 25.0021 -93.9503 26.1715C-93.779 27.3408 -93.3029 28.4457 -92.569 29.3774C-91.8352 30.309 -90.8688 31.0352 -89.7652 31.4844C-88.6616 31.9336 -87.4589 32.0903 -86.2756 31.939C-85.1411 31.7911 -84.0487 31.4169 -83.0644 30.839C-81.7516 30.109 -80.4894 29.049 -79.0757 27.519C-77.6619 29.049 -76.3694 30.109 -75.0869 30.849C-73.8537 31.5658 -72.4571 31.9615 -71.0275 31.999C-69.3721 32.0058 -67.7701 31.4193 -66.5173 30.3477C-65.2644 29.2761 -64.4454 27.7919 -64.2114 26.169C-63.9409 25.0027 -64.0324 23.7828 -64.4739 22.669V22.679ZM-78.9747 24.339C-80.7116 22.139 -81.8425 20.119 -82.2263 18.389C-82.3852 17.7479 -82.4195 17.0827 -82.3272 16.429C-82.2566 15.919 -82.0647 15.469 -81.8021 15.089C-81.1963 14.219 -80.136 13.679 -78.9747 13.679C-78.4232 13.6623 -77.8762 13.7815 -77.3827 14.0258C-76.8892 14.2702 -76.4647 14.632 -76.1472 15.079C-75.8847 15.479 -75.6928 15.919 -75.6322 16.429C-75.5313 17.009 -75.5716 17.679 -75.7332 18.389C-76.1169 20.089 -77.2479 22.129 -78.9747 24.339ZM-66.1098 25.819C-66.2245 26.6429 -66.5553 27.4227 -67.0691 28.0807C-67.5829 28.7386 -68.2618 29.2518 -69.0382 29.569C-69.8057 29.889 -70.6539 29.979 -71.4819 29.889C-72.2898 29.789 -73.0976 29.529 -73.9257 29.049C-75.3005 28.2075 -76.5368 27.162 -77.5913 25.949C-75.4707 23.349 -74.1882 20.979 -73.7035 18.869C-73.4713 17.869 -73.441 16.969 -73.5419 16.139C-73.668 15.3523 -73.9643 14.6018 -74.4104 13.939C-74.9197 13.2202 -75.5996 12.6364 -76.3902 12.2389C-77.1808 11.8413 -78.0579 11.6422 -78.9444 11.659C-80.8125 11.659 -82.4787 12.519 -83.4885 13.929C-83.9431 14.5901 -84.2369 15.3466 -84.3468 16.139C-84.4781 16.979 -84.4478 17.909 -84.1853 18.869C-83.7006 20.979 -82.3878 23.379 -80.2975 25.969C-81.3341 27.2051 -82.5733 28.2598 -83.9631 29.089C-84.8013 29.569 -85.599 29.819 -86.4068 29.919C-87.6632 30.0783 -88.9322 29.7402 -89.9382 28.9781C-90.9441 28.216 -91.6057 27.0914 -91.779 25.849C-91.88 25.049 -91.8093 24.249 -91.4862 23.349C-91.3852 23.029 -91.2337 22.709 -91.0721 22.329C-90.85 21.809 -90.5874 21.269 -90.335 20.729L-90.2946 20.659C-88.1134 15.889 -85.7303 11.019 -83.2563 6.24897L-83.1553 6.04897C-82.9028 5.56897 -82.6504 5.05897 -82.3878 4.57897C-82.1253 4.06897 -81.8425 3.57897 -81.479 3.17897C-81.1643 2.80699 -80.7711 2.50784 -80.3271 2.30258C-79.8831 2.09733 -79.3991 1.99096 -78.9091 1.99096C-78.419 1.99096 -77.935 2.09733 -77.491 2.30258C-77.047 2.50784 -76.6538 2.80699 -76.3391 3.17897C-75.9857 3.57897 -75.6928 4.06897 -75.4303 4.57897C-75.1778 5.05897 -74.9254 5.57897 -74.6628 6.04897L-74.5618 6.24897C-72.0979 11.019 -69.7148 15.889 -67.4932 20.659L-67.4629 20.689C-67.2004 21.209 -66.9782 21.789 -66.7258 22.289C-66.5642 22.679 -66.4026 22.989 -66.3016 23.319C-66.1098 24.219 -66.0088 25.019 -66.1098 25.819ZM-52.0533 24.119C-52.8142 24.13 -53.5679 23.9712 -54.2584 23.6544C-54.9489 23.3376 -55.5585 22.8709 -56.042 22.289C-57.1285 21.0489 -57.7052 19.45 -57.6577 17.809C-57.6744 16.1322 -57.0791 14.5058 -55.9815 13.229C-55.4737 12.6396 -54.8417 12.1676 -54.1299 11.8462C-53.418 11.5249 -52.6437 11.362 -51.8615 11.369C-51.1254 11.349 -50.3963 11.5148 -49.7427 11.8506C-49.0891 12.1865 -48.5325 12.6815 -48.1252 13.289L-48.0242 11.719H-45.0756V23.799H-48.0343L-48.1353 22.039C-48.5552 22.6876 -49.1356 23.2192 -49.8213 23.5833C-50.507 23.9473 -51.2754 24.1317 -52.0533 24.119ZM-51.2859 21.239C-50.7002 21.239 -50.1852 21.079 -49.7005 20.789C-49.2562 20.469 -48.8926 20.049 -48.6099 19.539C-48.3574 19.029 -48.2262 18.419 -48.2262 17.739C-48.1868 17.1484 -48.3029 16.5578 -48.5631 16.0249C-48.8233 15.492 -49.2187 15.0352 -49.7106 14.699C-50.1832 14.4073 -50.729 14.2527 -51.2859 14.2527C-51.8428 14.2527 -52.3885 14.4073 -52.8612 14.699C-53.3055 15.019 -53.669 15.439 -53.9517 15.949C-54.2188 16.5114 -54.3502 17.1276 -54.3355 17.749C-54.3748 18.3396 -54.2588 18.9302 -53.9986 19.463C-53.7384 19.9959 -53.343 20.4528 -52.8511 20.789C-52.3765 21.079 -51.8615 21.239 -51.2859 21.239ZM-40.0266 8.45897C-40.0266 8.80897 -40.0871 9.12897 -40.2487 9.38897C-40.4103 9.63897 -40.6324 9.86897 -40.9253 10.029C-41.2181 10.189 -41.5312 10.249 -41.8543 10.249C-42.1774 10.249 -42.5006 10.189 -42.7934 10.029C-43.0704 9.87628 -43.3033 9.65596 -43.47 9.38897C-43.6264 9.1041 -43.7031 8.78303 -43.6921 8.45897C-43.6921 8.09897 -43.6215 7.77897 -43.47 7.52897C-43.3084 7.22897 -43.0762 7.04897 -42.7934 6.88897C-42.5006 6.72897 -42.1875 6.65897 -41.8543 6.65897C-41.5329 6.65163 -41.215 6.72702 -40.9318 6.87776C-40.6486 7.0285 -40.4098 7.24944 -40.2386 7.51897C-40.0917 7.81052 -40.0189 8.13321 -40.0266 8.45897ZM-43.4599 23.759V11.699H-40.2487V23.779H-43.47L-43.4599 23.759ZM-31.6654 14.859V14.899C-31.8168 14.829 -32.0188 14.799 -32.1703 14.769C-32.3722 14.729 -32.5338 14.729 -32.7257 14.729C-33.6244 14.729 -34.301 14.989 -34.7453 15.529C-35.23 16.079 -35.4521 16.849 -35.4521 17.839V23.769H-38.6734V11.689H-35.7147L-35.6137 13.519C-35.2906 12.879 -34.9068 12.399 -34.3616 12.039C-33.8192 11.6892 -33.1806 11.5145 -32.5338 11.539C-32.3016 11.539 -32.0794 11.559 -31.8875 11.599C-31.7866 11.629 -31.726 11.629 -31.6654 11.659V14.859ZM-30.3728 23.759V6.73897H-27.1616V13.239C-26.7072 12.659 -26.1922 12.209 -25.546 11.859C-24.5228 11.3622 -23.3605 11.2213 -22.2466 11.459C-21.1327 11.6966 -20.1321 12.299 -19.4063 13.169C-18.3175 14.4116 -17.7407 16.0145 -17.7907 17.659C-17.774 19.3358 -18.3693 20.9621 -19.4669 22.239C-19.9747 22.8283 -20.6067 23.3003 -21.3185 23.6217C-22.0304 23.9431 -22.8047 24.106 -23.5869 24.099C-24.323 24.1189 -25.0521 23.9532 -25.7057 23.6173C-26.3593 23.2814 -26.9159 22.7865 -27.3232 22.179L-27.4242 23.749L-30.3728 23.779V23.759ZM-24.1625 21.239C-23.5869 21.239 -23.0719 21.079 -22.5872 20.789C-22.1429 20.469 -21.7794 20.049 -21.4966 19.539C-21.2341 19.029 -21.1129 18.419 -21.1129 17.739C-21.1129 17.069 -21.2341 16.459 -21.4966 15.949C-21.7618 15.4572 -22.1344 15.0302 -22.5872 14.699C-23.0599 14.4073 -23.6056 14.2527 -24.1625 14.2527C-24.7194 14.2527 -25.2652 14.4073 -25.7378 14.699C-26.1922 15.019 -26.5457 15.439 -26.8385 15.949C-27.1055 16.5114 -27.2369 17.1276 -27.2222 17.749C-27.2616 18.3396 -27.1455 18.9302 -26.8853 19.463C-26.6251 19.9959 -26.2297 20.4528 -25.7378 20.789C-25.2632 21.079 -24.7482 21.239 -24.1625 21.239ZM-16.5789 23.769V11.689H-13.6202L-13.5192 13.259C-13.1474 12.6572 -12.62 12.1646 -11.9915 11.8324C-11.363 11.5001 -10.6563 11.3401 -9.9445 11.369C-9.13049 11.355 -8.33041 11.5791 -7.64432 12.0131C-6.95821 12.4471 -6.41654 13.0717 -6.08704 13.809C-5.73361 14.569 -5.54175 15.509 -5.54175 16.559V23.799H-8.76302V16.979C-8.76302 16.139 -8.95489 15.479 -9.33862 14.989C-9.72234 14.509 -10.2474 14.249 -10.9139 14.249C-11.3986 14.249 -11.8227 14.349 -12.1964 14.569C-12.5498 14.799 -12.8426 15.089 -13.0648 15.499C-13.2894 15.9134 -13.4008 16.3788 -13.3879 16.849V23.769H-16.5789ZM-3.93616 23.769V6.72897H-0.71489V13.229C-0.278564 12.6457 0.289032 12.1712 0.942856 11.8432C1.59668 11.5151 2.31873 11.3425 3.05168 11.339C3.81261 11.3279 4.56628 11.4867 5.25679 11.8035C5.94729 12.1203 6.5569 12.587 7.04041 13.169C8.12152 14.4115 8.69424 16.0095 8.646 17.649C8.66354 19.3259 8.06818 20.9526 6.96972 22.229C6.46199 22.8183 5.82996 23.2903 5.11813 23.6117C4.40631 23.9331 3.632 24.096 2.84972 24.089C2.11365 24.1089 1.38453 23.9432 0.730934 23.6073C0.0773392 23.2714 -0.479263 22.7765 -0.886551 22.169L-0.977432 23.739L-3.93616 23.769ZM2.30444 21.239C2.89012 21.239 3.40511 21.079 3.87972 20.789C4.33414 20.469 4.68756 20.049 4.98041 19.539C5.23286 19.029 5.36414 18.419 5.36414 17.739C5.4035 17.1484 5.28741 16.5578 5.02721 16.0249C4.76702 15.492 4.37164 15.0352 3.87972 14.699C3.40707 14.4073 2.86133 14.2527 2.30444 14.2527C1.74754 14.2527 1.20179 14.4073 0.729134 14.699C0.284821 15.019 -0.0787048 15.439 -0.36145 15.949C-0.643311 16.5064 -0.775467 17.1263 -0.745178 17.749C-0.784546 18.3396 -0.668449 18.9302 -0.408257 19.463C-0.148071 19.9959 0.247314 20.4528 0.739235 20.789C1.21384 21.079 1.69855 21.239 2.30444 21.239Z" fill="#FF385C"/>
</g>
<defs>
<clipPath id="clip0_5519_304">
<rect width="103" height="32" fill="white" transform="translate(-94)"/>
</clipPath>
</defs>
</svg>
