<svg width="122" height="26" viewBox="0 0 122 26" fill="none" xmlns="http://www.w3.org/2000/svg">
<g id="Microsoft Logo" clip-path="url(#clip0_5519_146)">
<path id="Vector" d="M43.0636 14.9748L42.3365 17.0306H42.2759C42.1547 16.5671 41.9325 15.8616 41.5689 15.0151L37.6706 5.23993H33.853V20.8198H36.3779V11.2058C36.3779 10.6012 36.3779 9.9159 36.3577 9.06939C36.3375 8.64613 36.2971 8.32365 36.2769 8.08179H36.3375C36.4587 8.68644 36.6 9.12985 36.701 9.41202L41.3871 20.7795H43.1646L47.8103 9.31125C47.9113 9.04923 48.0123 8.5252 48.1133 8.08179H48.1739C48.1133 9.23063 48.0729 10.2585 48.0527 10.8833V20.7593H50.7391V5.19962H47.063L43.0636 14.9748ZM53.2841 9.59342H55.91V20.7593H53.2841V9.59342ZM54.6173 4.87714C54.1729 4.87714 53.8093 5.03838 53.5063 5.32055C53.2034 5.60272 53.0418 5.96551 53.0418 6.40892C53.0418 6.83218 53.2034 7.19497 53.5063 7.47714C53.8093 7.75931 54.1729 7.90039 54.6173 7.90039C55.0616 7.90039 55.4454 7.73915 55.7282 7.47714C56.0312 7.19497 56.1928 6.83218 56.1928 6.40892C56.1928 5.98566 56.0312 5.62287 55.7282 5.32055C55.4656 5.03838 55.0818 4.87714 54.6173 4.87714ZM65.2216 9.49264C64.7368 9.39187 64.2318 9.3314 63.7471 9.3314C62.5553 9.3314 61.4646 9.59342 60.5557 10.1174C59.6467 10.6415 58.9196 11.3671 58.455 12.274C57.9702 13.2012 57.7279 14.2694 57.7279 15.4988C57.7279 16.5671 57.9702 17.5143 58.4348 18.381C58.8994 19.2275 59.5457 19.9128 60.4143 20.3764C61.2424 20.8399 62.212 21.0818 63.3027 21.0818C64.555 21.0818 65.6255 20.8198 66.4739 20.3361L66.4941 20.3159V17.8973L66.3931 17.9779C66.0093 18.2601 65.5649 18.5019 65.1206 18.643C64.656 18.8043 64.2318 18.8849 63.8683 18.8849C62.8179 18.8849 61.9898 18.5826 61.404 17.9174C60.7981 17.2725 60.4951 16.3857 60.4951 15.2771C60.4951 14.1283 60.7981 13.2213 61.4242 12.5562C62.0504 11.8911 62.8785 11.5485 63.8885 11.5485C64.7368 11.5485 65.6053 11.8306 66.3931 12.395L66.4941 12.4756V9.9159L66.4739 9.89574C66.1305 9.75466 65.7467 9.59342 65.2216 9.49264ZM73.8868 9.41202C73.2404 9.41202 72.6345 9.61357 72.1093 10.0368C71.6649 10.3996 71.362 10.9236 71.0994 11.5485H71.0792V9.59342H68.4534V20.7593H71.0792V15.0554C71.0792 14.088 71.2812 13.2818 71.7255 12.6973C72.1699 12.0926 72.7355 11.7903 73.4222 11.7903C73.6646 11.7903 73.907 11.8508 74.21 11.8911C74.4928 11.9717 74.6947 12.0523 74.8361 12.1531L74.9371 12.2337V9.61357L74.8765 9.59342C74.6947 9.47249 74.3312 9.41202 73.8868 9.41202ZM81.0371 9.35156C79.1991 9.35156 77.7245 9.89574 76.6944 10.964C75.6441 12.0322 75.1391 13.5035 75.1391 15.3578C75.1391 17.0911 75.6643 18.5019 76.6742 19.5299C77.6841 20.5376 79.0577 21.0616 80.7745 21.0616C82.5722 21.0616 84.0063 20.5174 85.0365 19.4291C86.0868 18.3407 86.5918 16.8895 86.5918 15.0957C86.5918 13.3221 86.107 11.9112 85.1173 10.8833C84.1679 9.85543 82.7742 9.35156 81.0371 9.35156ZM83.1378 17.9376C82.653 18.5624 81.8855 18.8647 80.9361 18.8647C79.9868 18.8647 79.2192 18.5624 78.6739 17.8973C78.1285 17.2725 77.8659 16.3655 77.8659 15.2167C77.8659 14.0275 78.1487 13.1205 78.6739 12.4756C79.2192 11.8306 79.9666 11.5081 80.9159 11.5081C81.8451 11.5081 82.5722 11.8105 83.0974 12.4353C83.6226 13.0601 83.9053 13.9671 83.9053 15.1562C83.8649 16.3655 83.6428 17.3128 83.1378 17.9376ZM92.4494 14.2291C91.6212 13.8864 91.0961 13.6244 90.8537 13.4027C90.6517 13.2012 90.5507 12.919 90.5507 12.5562C90.5507 12.2539 90.6719 11.9516 90.9749 11.75C91.2779 11.5485 91.6212 11.4477 92.1262 11.4477C92.5706 11.4477 93.0351 11.5283 93.4795 11.6492C93.9239 11.7702 94.3279 11.9516 94.651 12.1934L94.752 12.274V9.81512L94.6914 9.79497C94.3884 9.67404 93.9845 9.55311 93.4997 9.45233C93.0149 9.37171 92.5706 9.3314 92.207 9.3314C90.9547 9.3314 89.9245 9.63373 89.1166 10.2988C88.3087 10.9236 87.9249 11.7702 87.9249 12.7578C87.9249 13.2818 88.0057 13.7454 88.1875 14.1283C88.3692 14.5112 88.6318 14.874 88.9954 15.1764C89.359 15.4585 89.8841 15.781 90.6113 16.0833C91.2173 16.3454 91.6818 16.5469 91.9646 16.7081C92.2474 16.8694 92.4292 17.0508 92.5706 17.1919C92.6716 17.3531 92.7322 17.5547 92.7322 17.8167C92.7322 18.5624 92.1666 18.9252 91.0153 18.9252C90.5709 18.9252 90.1063 18.8446 89.561 18.6632C89.0156 18.4818 88.5106 18.2198 88.0865 17.9174L87.9855 17.8368V20.3965L88.0461 20.4167C88.4298 20.5981 88.8944 20.719 89.46 20.8601C90.0255 20.9609 90.5305 21.0415 90.9749 21.0415C92.3282 21.0415 93.4391 20.7392 94.2269 20.074C95.0348 19.4291 95.459 18.6027 95.459 17.5345C95.459 16.7888 95.257 16.1237 94.8126 15.6198C94.2269 15.1361 93.4997 14.6322 92.4494 14.2291ZM102.387 9.35156C100.549 9.35156 99.0745 9.89574 98.0444 10.964C97.0143 12.0322 96.4891 13.5035 96.4891 15.3578C96.4891 17.0911 97.0143 18.5019 98.0242 19.5299C99.0341 20.5376 100.408 21.0616 102.125 21.0616C103.922 21.0616 105.356 20.5174 106.386 19.4291C107.437 18.3407 107.942 16.8895 107.942 15.0957C107.942 13.3221 107.457 11.9112 106.467 10.8833C105.518 9.85543 104.124 9.35156 102.387 9.35156ZM104.468 17.9376C103.983 18.5624 103.215 18.8647 102.266 18.8647C101.296 18.8647 100.549 18.5624 100.004 17.8973C99.4583 17.2725 99.1957 16.3655 99.1957 15.2167C99.1957 14.0275 99.4785 13.1205 100.004 12.4756C100.549 11.8306 101.296 11.5081 102.246 11.5081C103.155 11.5081 103.902 11.8105 104.427 12.4353C104.952 13.0601 105.235 13.9671 105.235 15.1562C105.235 16.3655 104.973 17.3128 104.468 17.9376ZM121.98 11.75V9.59342H119.334V6.28799L119.253 6.30815L116.748 7.05388L116.688 7.07404V9.59342H112.729V8.18256C112.729 7.5376 112.89 7.03373 113.173 6.71125C113.456 6.38877 113.88 6.22753 114.405 6.22753C114.769 6.22753 115.153 6.30815 115.577 6.48954L115.678 6.55001V4.27249L115.617 4.25233C115.254 4.1314 114.769 4.05078 114.143 4.05078C113.355 4.05078 112.668 4.23218 112.042 4.5345C111.416 4.87714 110.951 5.3407 110.608 5.96551C110.265 6.57016 110.083 7.25543 110.083 8.04148V9.59342H108.245V11.7299H110.083V20.7593H112.729V11.75H116.688V17.4942C116.688 19.8523 117.799 21.0415 120.021 21.0415C120.384 21.0415 120.768 20.981 121.131 20.9205C121.515 20.8399 121.798 20.7392 121.96 20.6585L121.98 20.6384V18.4818L121.879 18.5624C121.717 18.6632 121.576 18.7438 121.333 18.8043C121.131 18.8647 120.95 18.8849 120.808 18.8849C120.283 18.8849 119.92 18.764 119.657 18.4616C119.415 18.1795 119.293 17.7159 119.293 17.0306V11.75H121.98Z" fill="#737373"/>
<path id="Vector_2" d="M0 0H12.3818V12.355H0V0Z" fill="#F25022"/>
<path id="Vector_3" d="M13.6743 0H26.0561V12.355H13.6743V0Z" fill="#7FBA00"/>
<path id="Vector_4" d="M0 13.6445H12.3818V25.9996H0V13.6445Z" fill="#00A4EF"/>
<path id="Vector_5" d="M13.6743 13.6445H26.0561V25.9996H13.6743V13.6445Z" fill="#FFB900"/>
</g>
<defs>
<clipPath id="clip0_5519_146">
<rect width="122" height="26" fill="white"/>
</clipPath>
</defs>
</svg>
